<svg width="271" height="271" viewBox="0 0 271 271" fill="none" xmlns="http://www.w3.org/2000/svg">
<rect width="271" height="271" rx="135.5" fill="black"/>
<g clip-path="url(#clip0_703_2)">
<path d="M209.125 142H185.125C181.942 142 178.89 143.264 176.64 145.515C174.389 147.765 173.125 150.817 173.125 154V184C173.125 187.183 174.389 190.235 176.64 192.485C178.89 194.736 181.942 196 185.125 196H197.125C200.308 196 203.36 194.736 205.61 192.485C207.861 190.235 209.125 187.183 209.125 184V142ZM209.125 142C209.125 132.494 207.243 123.082 203.588 114.307C199.932 105.533 194.575 97.5687 187.825 90.875C181.076 84.1813 173.067 78.8904 164.263 75.3075C155.458 71.7246 146.031 69.9208 136.525 70C127.026 69.9307 117.607 71.7419 108.811 75.3293C100.014 78.9166 92.0151 84.2091 85.2736 90.9018C78.5321 97.5945 73.1816 105.555 69.5305 114.325C65.8793 123.095 63.9997 132.5 64 142M64 142V184C64 187.183 65.2643 190.235 67.5147 192.485C69.7652 194.736 72.8174 196 76 196H88C91.1826 196 94.2348 194.736 96.4853 192.485C98.7357 190.235 100 187.183 100 184V154C100 150.817 98.7357 147.765 96.4853 145.515C94.2348 143.264 91.1826 142 88 142H64Z" stroke="white" stroke-width="12" stroke-linecap="round" stroke-linejoin="round"/>
</g>
<defs>
<clipPath id="clip0_703_2">
<rect width="192" height="192" fill="white" transform="translate(40 40)"/>
</clipPath>
</defs>
</svg>
